<?xml version="1.0" standalone="no"?>
<!DOCTYPE svg PUBLIC "-//W3C//DTD SVG 20010904//EN"
 "http://www.w3.org/TR/2001/REC-SVG-20010904/DTD/svg10.dtd">
<svg version="1.0" xmlns="http://www.w3.org/2000/svg"
 width="700.000000pt" height="700.000000pt" viewBox="0 0 700.000000 700.000000"
 preserveAspectRatio="xMidYMid meet">
<metadata>
Created by potrace 1.11, written by Peter Selinger 2001-2013
</metadata>
<g transform="translate(0.000000,700.000000) scale(0.100000,-0.100000)"
fill="#000000" stroke="none">
<path d="M0 3500 l0 -3500 3500 0 3500 0 0 3500 0 3500 -3500 0 -3500 0 0
-3500z m2020 275 c190 -503 347 -915 350 -915 3 0 160 412 350 915 l345 915
153 0 c83 0 152 -2 152 -4 0 -2 -178 -471 -396 -1042 -218 -572 -405 -1063
-416 -1091 l-19 -53 -168 0 -168 0 -413 1083 c-227 595 -415 1088 -418 1095
-3 9 31 12 150 12 l154 0 344 -915z m2470 905 c424 -33 705 -164 864 -403 123
-186 170 -375 170 -682 0 -306 -47 -496 -169 -680 -140 -211 -363 -334 -710
-391 -78 -13 -193 -18 -527 -21 l-428 -5 0 1096 0 1096 333 0 c182 0 393 -5
467 -10z"/>
<path d="M3990 3591 l0 -851 188 0 c344 0 515 27 672 103 164 80 279 230 330
429 45 182 45 464 0 645 -65 258 -228 418 -498 490 -92 25 -113 26 -394 31
l-298 4 0 -851z"/>
</g>
</svg>
